<?xml version="1.0" encoding="UTF-8" standalone="no"?>
<!DOCTYPE svg PUBLIC "-//W3C//DTD SVG 1.1//EN" "http://www.w3.org/Graphics/SVG/1.1/DTD/svg11.dtd">
<svg width="100%" height="100%" viewBox="0 0 1342 330" version="1.1" xmlns="http://www.w3.org/2000/svg" xmlns:xlink="http://www.w3.org/1999/xlink" xml:space="preserve" xmlns:serif="http://www.serif.com/" style="fill-rule:evenodd;clip-rule:evenodd;stroke-linejoin:round;stroke-miterlimit:2;">
    <g transform="matrix(1,0,0,1,-10470.1,-10184.4)">
        <g transform="matrix(5.55556,0,0,5.55556,9900,9900)">
            <g transform="matrix(1,0,0,1,294.824,58.9212)">
                <path d="M0,26.709C-4.127,26.514 -8.264,26.873 -12.387,26.453C-15.395,26.147 -17.557,24.707 -18.611,21.842C-20.564,16.538 -21.437,11.18 -19.164,5.722C-18.701,4.611 -18.098,3.583 -17.408,2.601C-16.018,0.603 -13.955,-0.094 -11.674,-0.113C-5.186,-0.164 1.303,-0.15 7.789,-0.103C9.299,-0.09 10.574,0.625 11.369,1.931C13.83,5.966 14.186,10.099 11.801,14.312C10.693,16.268 9.01,17.216 6.756,17.199C0.846,17.15 -5.062,17.134 -10.973,17.069C-11.936,17.056 -13.141,17.233 -13.592,16.058C-14.082,14.778 -14.123,13.387 -13.52,12.118C-13.139,11.32 -12.258,11.341 -11.475,11.335C-5.873,11.317 -0.273,11.301 5.324,11.283C5.633,11.283 5.943,11.29 6.252,11.283C8.379,11.243 9.135,10.574 9.16,8.714C9.195,6.534 8.383,5.582 6.25,5.569C0.455,5.527 -5.338,5.517 -11.133,5.566C-13.826,5.592 -15.857,7.659 -16.121,10.563C-16.324,12.804 -16.197,15.041 -15.67,17.237C-15.141,19.431 -13.574,20.84 -11.307,20.884C-5.746,20.994 -0.184,20.976 5.379,21.022C7.268,21.036 9.164,20.998 11.043,21.153C12.912,21.302 13.363,22.063 13.25,24.326C13.164,26.008 12.422,26.733 10.662,26.739C7.107,26.748 3.553,26.72 0,26.709" style="fill:rgb(240,127,70);"/>
            </g>
        </g>
        <g transform="matrix(5.55556,0,0,5.55556,9900,9900)">
            <g transform="matrix(1,0,0,1,328.609,85.693)">
                <path d="M0,-26.805C4.055,-26.792 8.107,-26.78 12.164,-26.763C13.135,-26.758 14.244,-26.82 14.672,-25.749C15.186,-24.47 15.229,-23.08 14.529,-21.831C14.068,-21.01 13.137,-21.1 12.336,-21.094C9.402,-21.083 6.465,-21.109 3.533,-21.117C-1.488,-21.135 -6.508,-21.11 -11.529,-21.182C-14.207,-21.224 -14.576,-19.48 -14.291,-17.867C-14.156,-17.103 -13.662,-16.656 -12.928,-16.454C-12.328,-16.285 -11.717,-16.242 -11.096,-16.242C-4.648,-16.227 1.805,-16.097 8.252,-16.222C11.904,-16.294 14.018,-15.152 15.182,-10.159C15.676,-8.025 15.266,-5.927 14.568,-3.905C13.641,-1.205 12.016,-0.021 8.953,0.032C4.473,0.1 -0.004,0.043 -4.486,0.032C-8.117,0.019 -11.746,-0.007 -15.375,-0.035C-17.99,-0.054 -19.285,-2.413 -17.945,-4.696C-17.623,-5.244 -17.111,-5.493 -16.512,-5.559C-15.824,-5.634 -15.129,-5.701 -14.438,-5.7C-7.139,-5.686 0.16,-5.654 7.457,-5.634C7.883,-5.633 8.309,-5.638 8.73,-5.669C10.355,-5.794 11.199,-6.546 11.203,-7.852C11.203,-9.526 10.264,-10.522 8.539,-10.54C4.521,-10.582 0.508,-10.576 -3.51,-10.588C-6.02,-10.599 -8.529,-10.605 -11.041,-10.614C-15.867,-10.631 -17.623,-12.045 -18.51,-16.827C-19.004,-19.493 -18.605,-22.039 -17.051,-24.356C-15.896,-26.073 -14.344,-26.905 -12.279,-26.885C-8.184,-26.851 -4.094,-26.853 0,-26.84L0,-26.805Z" style="fill:rgb(240,126,70);"/>
            </g>
        </g>
        <g transform="matrix(5.55556,0,0,5.55556,9900,9900)">
            <g transform="matrix(1,0,0,1,214.971,84.601)">
                <path d="M0,-26.13C3.246,-26.119 6.49,-26.108 9.736,-26.097C13.279,-26.085 15.225,-24.711 16.383,-21.346C16.713,-20.399 16.91,-19.418 16.904,-18.4C16.871,-12.797 16.861,-7.199 16.84,-1.596C16.834,-0.215 16.537,0.069 15.131,0.08C14.82,0.084 14.51,0.075 14.199,0.08C13.148,0.089 12.678,-0.389 12.693,-1.483C12.734,-5.963 12.732,-10.444 12.746,-14.925C12.75,-16.007 12.77,-17.086 12.752,-18.169C12.734,-19.618 12.061,-20.323 10.645,-20.331C3.457,-20.364 -3.727,-20.389 -10.91,-20.402C-12.373,-20.404 -13.033,-19.697 -13.041,-18.149C-13.064,-12.703 -13.08,-7.255 -13.1,-1.811C-13.107,-0.226 -13.375,-0.011 -15.303,-0.024C-16.98,-0.031 -17.242,-0.273 -17.238,-1.825C-17.219,-7.35 -17.197,-12.873 -17.184,-18.397C-17.178,-20.265 -16.641,-21.97 -15.607,-23.514C-14.436,-25.264 -12.85,-26.219 -10.66,-26.18C-7.107,-26.115 -3.553,-26.143 0,-26.13" style="fill:rgb(142,33,67);"/>
            </g>
        </g>
        <g transform="matrix(5.55556,0,0,5.55556,9900,9900)">
            <g transform="matrix(1,0,0,1,180.801,58.3949)">
                <path d="M0,26.121C-4.213,26.106 -8.428,25.971 -12.631,26.115C-16.488,26.249 -18.248,24.282 -18.477,20.514C-18.693,16.933 -18.527,13.33 -18.521,9.739C-18.52,6.958 -18.48,4.178 -18.51,1.394C-18.52,0.313 -18.123,-0.128 -17.008,-0.115C-14.383,-0.083 -14.379,-0.121 -14.389,2.466C-14.406,7.759 -14.432,13.051 -14.443,18.343C-14.447,20.478 -13.891,21.042 -11.799,21.051C-4.924,21.075 1.951,21.099 8.832,21.119C10.846,21.126 11.418,20.55 11.426,18.495C11.445,12.932 11.463,7.372 11.48,1.807C11.486,0.149 11.631,0.001 13.242,0.004C13.516,0.005 13.783,0.004 14.055,0.008C15.357,0.02 15.621,0.266 15.621,1.558C15.617,4.801 15.602,8.046 15.59,11.291C15.574,15.619 15.561,19.944 15.543,24.272C15.537,25.881 15.254,26.172 13.676,26.167C9.115,26.156 4.557,26.138 0,26.121" style="fill:rgb(142,34,68);"/>
            </g>
        </g>
        <g transform="matrix(5.55556,0,0,5.55556,9900,9900)">
            <g transform="matrix(1,0,0,1,273.238,73.5335)">
                <path d="M0,-2.124C-0.012,1.39 -0.021,4.901 -0.033,8.418C-0.033,8.688 -0.025,8.957 -0.039,9.226C-0.178,11.841 -1.689,12.918 -4.187,12.041C-8.115,10.667 -12.01,9.204 -15.916,7.768C-20.285,6.16 -24.656,4.54 -29.025,2.918C-31.967,1.829 -33.93,-0.872 -33.955,-3.97C-33.986,-7.174 -33.93,-10.379 -33.943,-13.584C-33.947,-14.551 -33.57,-14.98 -32.57,-14.989C-29.789,-15.02 -29.789,-15.042 -29.797,-12.214C-29.809,-9.476 -29.789,-6.731 -29.842,-3.992C-29.865,-2.857 -29.393,-2.171 -28.361,-1.794C-20.84,0.964 -13.314,3.717 -5.801,6.497C-4.848,6.853 -4.396,6.506 -4.225,5.62C-4.143,5.209 -4.137,4.777 -4.135,4.355C-4.109,-1.475 -4.092,-7.308 -4.07,-13.137C-4.064,-14.805 -3.986,-14.879 -2.271,-14.873C-1.998,-14.873 -1.727,-14.851 -1.459,-14.876C-0.342,-14.98 0.053,-14.415 0.045,-13.364C0.016,-9.616 0.014,-5.872 0,-2.124" style="fill:rgb(142,34,68);"/>
            </g>
        </g>
        <g transform="matrix(5.55556,0,0,5.55556,9900,9900)">
            <g transform="matrix(1,0,0,1,237.877,71.6067)">
                <path d="M0,-0.081C-0.012,3.703 -0.023,7.486 -0.037,11.271C-0.041,12.814 -0.32,13.091 -1.842,13.096C-2.035,13.096 -2.229,13.096 -2.424,13.094C-3.898,13.073 -4.182,12.796 -4.178,11.335C-4.156,4.54 -4.133,-2.254 -4.109,-9.048C-4.105,-9.975 -4.104,-10.902 -4.1,-11.829C-4.1,-12.679 -3.701,-13.06 -2.82,-13.082C0.043,-13.154 0.043,-13.177 0.035,-10.27C0.021,-6.875 0.01,-3.477 0,-0.081" style="fill:rgb(142,34,68);"/>
            </g>
        </g>
        <g transform="matrix(5.55556,0,0,5.55556,9900,9900)">
            <g transform="matrix(1,0,0,1,175.687,99.2997)">
                <path d="M0,-2.607C-0.008,-0.446 -0.064,1.398 0.002,3.237C0.033,4.12 -0.463,4.032 -1.012,4.009C-1.553,3.987 -2.158,4.21 -2.135,3.22C-2.068,0.326 -2.111,-2.567 -2.068,-5.459C-2.061,-5.853 -2.393,-6.576 -1.736,-6.606C-1.018,-6.64 -0.125,-7.086 0.441,-6.121C1.529,-4.261 2.666,-2.426 3.787,-0.583C3.9,-0.391 4.039,-0.215 4.35,0.232C4.357,-1.899 4.398,-3.756 4.354,-5.616C4.33,-6.384 4.479,-6.69 5.336,-6.67C6.148,-6.65 6.477,-6.525 6.451,-5.599C6.373,-2.788 6.424,0.031 6.379,2.845C6.373,3.234 6.713,3.964 6.037,3.981C5.316,3.998 4.424,4.479 3.85,3.512C2.748,1.658 1.602,-0.171 0.471,-2.009C0.395,-2.132 0.291,-2.242 0,-2.607" style="fill:rgb(144,37,70);"/>
            </g>
        </g>
        <g transform="matrix(5.55556,0,0,5.55556,9900,9900)">
            <g transform="matrix(1,0,0,1,168.457,99.4914)">
                <path d="M0,-3.076C0.004,-4.12 0.053,-5.163 -0.002,-6.203C-0.049,-7.08 0.541,-6.907 0.984,-6.849C1.449,-6.789 2.254,-7.272 2.232,-6.211C2.18,-3.78 2.326,-1.344 2.074,1.079C2.033,1.456 1.932,1.849 1.771,2.189C1.1,3.61 -0.865,4.289 -3.129,3.913C-5.025,3.6 -6.137,2.612 -6.215,0.871C-6.324,-1.514 -6.283,-3.912 -6.279,-6.305C-6.279,-7.365 -5.437,-6.768 -4.984,-6.87C-4.533,-6.97 -4.082,-6.973 -4.104,-6.223C-4.15,-4.255 -4.152,-2.286 -4.127,-0.32C-4.109,1.252 -3.512,1.963 -2.207,2.104C-0.998,2.238 -0.152,1.618 -0.068,0.397C0.012,-0.754 -0.045,-1.917 -0.041,-3.076L0,-3.076Z" style="fill:rgb(144,37,70);"/>
            </g>
        </g>
        <g transform="matrix(5.55556,0,0,5.55556,9900,9900)">
            <g transform="matrix(1,0,0,1,188.869,103.614)">
                <path d="M0,-10.855C2.346,-11.037 2.338,-11.035 3.041,-8.936C3.652,-7.113 4.283,-5.294 5.01,-3.183C5.715,-5.294 6.336,-7.147 6.955,-8.998C7.637,-11.036 7.637,-11.036 9.936,-10.812C8.701,-7.433 7.488,-4.07 6.252,-0.716C5.922,0.182 5.131,-0.364 4.561,-0.253C4.09,-0.163 3.717,-0.245 3.512,-0.838C2.383,-4.154 1.203,-7.447 0,-10.855" style="fill:rgb(142,35,69);"/>
            </g>
        </g>
        <g transform="matrix(5.55556,0,0,5.55556,9900,9900)">
            <g transform="matrix(1,0,0,1,187.203,97.8761)">
                <path d="M0,0.26C-0.006,1.761 -0.051,3.266 -0.004,4.768C0.023,5.591 -0.479,5.534 -0.967,5.462C-1.434,5.39 -2.217,5.87 -2.213,4.815C-2.189,1.693 -2.182,-1.431 -2.182,-4.552C-2.18,-5.61 -1.395,-5.116 -0.928,-5.184C-0.432,-5.261 0.061,-5.297 0.029,-4.48C-0.029,-2.899 0.002,-1.32 0,0.26" style="fill:rgb(146,42,74);"/>
            </g>
        </g>
        <g transform="matrix(5.55556,0,0,5.55556,9900,9900)">
            <g transform="matrix(1,0,0,1,297.309,99.5446)">
                <path d="M0,-2.054C-0.385,-2.043 -0.768,-2.01 -1.152,-1.99C-2.961,-1.923 -3.404,-2.487 -2.975,-4.252C-2.908,-4.538 -2.793,-4.642 -2.523,-4.635C-1.641,-4.617 -0.754,-4.646 0.127,-4.568C0.881,-4.506 1.314,-4.033 1.271,-3.25C1.229,-2.47 0.777,-2.08 0,-2.054M1.115,-0.408C3.178,-1.379 3.824,-2.408 3.51,-4.139C3.236,-5.676 2.15,-6.4 -0.098,-6.472C-1.523,-6.518 -2.949,-6.477 -4.379,-6.518C-4.951,-6.533 -5.201,-6.403 -5.199,-5.762C-5.18,-2.717 -5.172,0.33 -5.234,3.378C-5.256,4.479 -4.523,4.121 -3.992,4.16C-3.469,4.198 -2.896,4.315 -2.979,3.408C-3.055,2.527 -2.908,1.627 -3.006,0.748C-3.129,-0.377 -2.492,-0.342 -1.762,-0.173C-1.219,-0.044 -0.818,0.333 -0.504,0.792C-0.094,1.393 0.412,1.964 0.701,2.621C1.434,4.301 2.736,4.402 4.385,4.081C3.32,2.502 2.574,0.812 1.115,-0.408" style="fill:rgb(145,39,73);fill-rule:nonzero;"/>
            </g>
        </g>
        <g transform="matrix(5.55556,0,0,5.55556,9900,9900)">
            <g transform="matrix(1,0,0,1,216.363,99.4172)">
                <path d="M0,-2.203C-0.383,-2.185 -0.764,-2.163 -1.145,-2.14C-2.895,-2.068 -3.371,-2.697 -2.932,-4.414C-2.836,-4.796 -2.619,-4.782 -2.355,-4.782C-1.553,-4.77 -0.744,-4.792 0.055,-4.731C0.855,-4.675 1.32,-4.239 1.271,-3.383C1.225,-2.58 0.754,-2.238 0,-2.203M1.156,-0.541C1.279,-0.65 1.328,-0.716 1.391,-0.747C3.17,-1.516 3.807,-2.539 3.543,-4.211C3.313,-5.667 2.287,-6.502 0.449,-6.587C-1.17,-6.663 -2.793,-6.615 -4.414,-6.663C-4.967,-6.675 -5.15,-6.498 -5.15,-5.94C-5.139,-2.852 -5.15,0.238 -5.178,3.324C-5.186,4.472 -4.34,3.908 -3.848,4.012C-3.314,4.117 -2.875,4.057 -2.934,3.278C-2.998,2.395 -2.947,1.504 -2.938,0.614C-2.932,-0.387 -2.555,-0.656 -1.619,-0.289C-1.146,-0.1 -0.768,0.235 -0.479,0.662C-0.068,1.271 0.439,1.837 0.732,2.494C1.451,4.119 2.693,4.308 4.355,3.913C3.361,2.366 2.598,0.734 1.156,-0.541" style="fill:rgb(145,39,73);fill-rule:nonzero;"/>
            </g>
        </g>
        <g transform="matrix(5.55556,0,0,5.55556,9900,9900)">
            <g transform="matrix(1,0,0,1,267.48,96.3036)">
                <path d="M0,3.934C-0.295,5.113 -1.162,5.446 -2.268,5.455C-4.227,5.47 -4.227,5.484 -4.219,3.57C-4.219,3.031 -4.217,2.491 -4.211,1.954C-4.211,1.453 -4.291,0.935 -4.187,0.456C-4.045,-0.195 -4.744,-1.223 -3.703,-1.463C-1.879,-1.88 -0.428,-1.21 -0.021,0.066C0.381,1.34 0.32,2.644 0,3.934M-1.531,-3.313C-2.879,-3.37 -4.23,-3.326 -5.574,-3.382C-6.225,-3.409 -6.451,-3.214 -6.432,-2.547C-6.395,-1.085 -6.43,0.382 -6.434,1.844C-6.439,3.385 -6.416,4.928 -6.461,6.468C-6.484,7.125 -6.275,7.336 -5.615,7.315C-4.309,7.27 -2.994,7.343 -1.686,7.301C0.221,7.238 1.555,6.268 2.146,4.505C2.701,2.852 2.703,1.161 2.148,-0.486C1.564,-2.225 0.338,-3.234 -1.531,-3.313" style="fill:rgb(145,39,73);fill-rule:nonzero;"/>
            </g>
        </g>
        <g transform="matrix(5.55556,0,0,5.55556,9900,9900)">
            <g transform="matrix(1,0,0,1,244.275,95.5105)">
                <path d="M0,5.356C-0.461,6.013 -3.17,6.556 -3.768,6.107C-3.986,5.944 -3.928,5.689 -3.926,5.468C-3.93,4.543 -3.924,3.622 -3.922,2.697C-3.918,2.197 -3.979,1.688 -3.898,1.202C-3.791,0.539 -4.359,-0.373 -3.531,-0.746C-2.441,-1.24 -0.52,-0.604 0.039,0.238C0.74,1.285 0.713,4.341 0,5.356M-1.164,-2.591C-2.512,-2.648 -3.863,-2.589 -5.213,-2.67C-5.971,-2.715 -6.104,-2.415 -6.086,-1.745C-6.047,-0.279 -6.082,1.188 -6.088,2.654C-6.094,4.197 -6.082,5.739 -6.113,7.285C-6.123,7.809 -5.998,8.042 -5.414,8.026C-4.027,7.99 -2.635,8.071 -1.25,7.998C0.025,7.932 1.184,7.492 1.873,6.315C3.205,4.036 3.174,1.676 2.041,-0.636C1.42,-1.909 0.248,-2.533 -1.164,-2.591" style="fill:rgb(142,34,68);fill-rule:nonzero;"/>
            </g>
        </g>
        <g transform="matrix(5.55556,0,0,5.55556,9900,9900)">
            <g transform="matrix(1,0,0,1,228.33,99.0816)">
                <path d="M0,-1.843C-0.984,-2.165 -2.006,-2.389 -2.967,-2.763C-3.824,-3.098 -3.928,-3.762 -3.303,-4.237C-2.348,-4.954 -0.803,-4.636 -0.195,-3.592C0.086,-3.11 1.398,-2.785 1.895,-3.149C2.447,-3.557 2.037,-4.075 1.867,-4.495C1.564,-5.238 1.004,-5.767 0.246,-6.053C-0.748,-6.422 -1.77,-6.53 -2.82,-6.365C-4.645,-6.077 -5.678,-5.161 -5.83,-3.68C-5.979,-2.249 -5.078,-1.061 -3.361,-0.492C-2.523,-0.214 -1.656,-0.026 -0.809,0.23C-0.273,0.39 0.219,0.648 0.205,1.314C0.189,1.97 -0.209,2.351 -0.807,2.573C-2.115,3.058 -3.354,2.568 -3.922,1.244C-4.418,0.078 -5.258,0.876 -5.881,0.922C-6.498,0.971 -6.107,1.621 -6.018,1.948C-5.539,3.69 -4.01,4.634 -1.535,4.627C-1.152,4.687 -0.547,4.535 0.049,4.381C1.979,3.871 2.975,1.848 2.236,0.003C1.832,-1.026 0.98,-1.524 0,-1.843" style="fill:rgb(145,39,73);fill-rule:nonzero;"/>
            </g>
        </g>
        <g transform="matrix(5.55556,0,0,5.55556,9900,9900)">
            <g transform="matrix(1,0,0,1,207.988,94.6131)">
                <path d="M0,6.937C-1.113,6.982 -2.234,6.942 -3.355,6.939C-5.295,6.933 -5.264,6.933 -5.248,4.964C-5.238,4.294 -5.031,4.119 -4.391,4.145C-3.197,4.197 -1.994,4.112 -0.803,4.191C0.012,4.242 0.131,3.916 0.133,3.208C0.137,2.519 -0.008,2.254 -0.752,2.294C-1.982,2.355 -3.225,2.25 -4.457,2.314C-5.6,2.375 -5.16,1.57 -5.201,1.064C-5.246,0.527 -5.418,-0.1 -4.416,-0.038C-2.994,0.055 -1.561,-0.038 -0.133,0.012C0.59,0.04 0.582,-0.368 0.551,-0.86C0.521,-1.321 0.756,-1.885 -0.107,-1.874C-2.313,-1.84 -4.512,-1.859 -6.713,-1.894C-7.277,-1.901 -7.441,-1.708 -7.436,-1.165C-7.416,0.382 -7.436,1.924 -7.441,3.469C-7.447,4.976 -7.434,6.481 -7.467,7.989C-7.482,8.562 -7.344,8.809 -6.703,8.8C-4.469,8.77 -2.229,8.774 0.012,8.821C0.869,8.838 0.656,8.279 0.684,7.817C0.715,7.326 0.73,6.906 0,6.937" style="fill:rgb(144,37,70);fill-rule:nonzero;"/>
            </g>
        </g>
        <g transform="matrix(5.55556,0,0,5.55556,9900,9900)">
            <g transform="matrix(1,0,0,1,320.9,103.519)">
                <path d="M0,-10.374C-0.48,-10.34 -1.24,-10.738 -1.203,-9.687C-1.164,-8.606 -1.201,-7.527 -1.205,-6.447L-1.289,-6.447C-1.291,-5.29 -1.279,-4.134 -1.309,-2.978C-1.324,-2.179 -1.787,-1.726 -2.547,-1.52C-4.096,-1.096 -5.258,-1.924 -5.275,-3.532C-5.297,-5.576 -5.293,-7.622 -5.25,-9.666C-5.234,-10.319 -5.52,-10.525 -6.064,-10.395C-6.564,-10.271 -7.486,-10.874 -7.492,-9.853C-7.506,-7.352 -7.723,-4.838 -7.377,-2.342C-7.182,-0.913 -6.299,-0.093 -4.951,0.277C-4.234,0.475 -3.502,0.5 -2.768,0.474C-0.367,0.38 0.867,-0.781 0.959,-3.182C1.043,-5.337 0.973,-7.5 1.049,-9.656C1.084,-10.589 0.494,-10.412 0,-10.374" style="fill:rgb(146,42,74);fill-rule:nonzero;"/>
            </g>
        </g>
        <g transform="matrix(5.55556,0,0,5.55556,9900,9900)">
            <g transform="matrix(1,0,0,1,329.803,97.3122)">
                <path d="M0,2.318C-2.121,2.554 -2.213,2.455 -1.477,0.459C-1.268,-0.112 -1.059,-0.684 -0.77,-1.47C-0.311,-0.255 0.057,0.699 0.41,1.659C0.549,2.036 0.533,2.261 0,2.318M-2.027,-3.777C-3.387,-0.388 -4.697,3.013 -6.064,6.499C-5.48,6.5 -5.012,6.459 -4.561,6.515C-3.891,6.605 -3.52,6.343 -3.424,5.698C-3.23,4.363 -2.455,3.922 -1.172,4.151C-0.762,4.224 -0.318,4.22 0.098,4.157C1.07,4.008 1.641,4.375 1.803,5.35C1.965,6.318 2.523,6.696 3.494,6.542C3.828,6.486 4.182,6.534 4.656,6.534C3.271,3.042 1.943,-0.355 0.572,-3.738C0.326,-4.348 -1.789,-4.378 -2.027,-3.777" style="fill:rgb(142,35,69);fill-rule:nonzero;"/>
            </g>
        </g>
        <g transform="matrix(5.55556,0,0,5.55556,9900,9900)">
            <g transform="matrix(1,0,0,1,253.748,96.9257)">
                <path d="M0,2.436C-1.346,2.426 -1.352,2.426 -0.871,1.127C-0.605,0.409 -0.328,-0.301 0.066,-1.339C0.43,-0.358 0.699,0.373 0.965,1.11C1.447,2.441 1.445,2.441 0,2.436M1.52,-3.375C1.164,-4.327 0.48,-3.932 -0.1,-4.013C-0.646,-4.084 -1.1,-4.049 -1.346,-3.357C-1.91,-1.76 -2.58,-0.199 -3.195,1.378C-3.863,3.092 -4.523,4.807 -5.232,6.632C-4.535,6.632 -3.998,6.62 -3.463,6.643C-3.063,6.662 -2.76,6.562 -2.713,6.125C-2.506,4.236 -1.223,4.123 0.252,4.291C0.559,4.329 0.877,4.344 1.178,4.291C1.994,4.152 2.432,4.521 2.541,5.287C2.732,6.582 3.564,6.763 4.682,6.691C5.395,6.646 5.418,6.457 5.18,5.872C3.936,2.8 2.682,-0.269 1.52,-3.375" style="fill:rgb(142,35,69);fill-rule:nonzero;"/>
            </g>
        </g>
        <g transform="matrix(5.55556,0,0,5.55556,9900,9900)">
            <g transform="matrix(1,0,0,1,282.518,101.94)">
                <path d="M0,-7.016C-0.631,-5.145 -1.268,-3.275 -1.959,-1.224C-2.662,-3.295 -3.305,-5.151 -3.924,-7.008C-4.613,-9.08 -4.604,-9.083 -6.77,-8.918C-6.801,-8.918 -6.832,-8.893 -6.937,-8.843C-5.746,-5.484 -4.555,-2.118 -3.359,1.246C-3.287,1.45 -3.242,1.643 -2.949,1.725C-1.73,2.067 -0.842,1.65 -0.406,0.477C-0.299,0.187 -0.184,-0.094 -0.078,-0.385C0.934,-3.196 1.943,-6.01 2.963,-8.843C0.687,-9.071 0.691,-9.071 0,-7.016" style="fill:rgb(142,35,69);fill-rule:nonzero;"/>
            </g>
        </g>
        <g transform="matrix(5.55556,0,0,5.55556,9900,9900)">
            <g transform="matrix(1,0,0,1,310.678,103.979)">
                <path d="M0,-10.89C-2.393,-10.866 -4.781,-10.89 -7.17,-10.91C-7.582,-10.911 -7.787,-10.831 -7.814,-10.347C-7.861,-9.489 -7.83,-8.798 -6.646,-9.031C-6.275,-9.102 -5.873,-9.006 -5.492,-9.047C-4.895,-9.108 -4.678,-8.9 -4.705,-8.276C-4.756,-7.083 -4.727,-5.889 -4.73,-4.692C-4.732,-3.458 -4.687,-2.221 -4.758,-0.993C-4.82,0.021 -4.141,-0.236 -3.617,-0.233C-3.092,-0.229 -2.441,0.019 -2.473,-0.99C-2.533,-2.798 -2.498,-4.614 -2.463,-6.424C-2.451,-7.26 -2.807,-8.292 -2.285,-8.871C-1.842,-9.363 -0.82,-9.042 -0.064,-9C0.676,-8.956 0.666,-9.374 0.619,-9.861C0.584,-10.291 0.889,-10.9 0,-10.89" style="fill:rgb(144,37,70);fill-rule:nonzero;"/>
            </g>
        </g>
        <g transform="matrix(5.55556,0,0,5.55556,9900,9900)">
            <g transform="matrix(1,0,0,1,343.893,94.0272)">
                <path d="M0,8.935C-0.006,8.418 0.08,7.94 -0.723,7.976C-1.959,8.03 -3.195,7.943 -4.432,7.99C-5.115,8.018 -5.396,7.862 -5.35,7.11C-5.277,5.994 -5.326,4.87 -5.322,3.75C-5.316,2.514 -5.361,1.278 -5.293,0.046C-5.242,-0.955 -5.912,-0.714 -6.447,-0.731C-7.006,-0.747 -7.594,-0.906 -7.58,0.065C-7.541,3.077 -7.568,6.089 -7.604,9.099C-7.609,9.642 -7.455,9.851 -6.891,9.841C-4.842,9.821 -2.795,9.81 -0.75,9.868C0.033,9.89 0.008,9.473 0,8.935" style="fill:rgb(145,39,73);fill-rule:nonzero;"/>
            </g>
        </g>
        <g transform="matrix(5.55556,0,0,5.55556,9900,9900)">
            <g transform="matrix(1,0,0,1,235.451,98.1831)">
                <path d="M0,-0.007C0.004,-1.549 -0.035,-3.091 0.033,-4.628C0.076,-5.573 -0.545,-5.35 -1.027,-5.33C-1.516,-5.31 -2.23,-5.672 -2.223,-4.63C-2.197,-1.549 -2.211,1.535 -2.254,4.616C-2.268,5.665 -1.539,5.283 -1.055,5.317C-0.568,5.351 0.041,5.555 0.002,4.616C-0.057,3.078 -0.004,1.535 0,-0.007" style="fill:rgb(146,42,74);fill-rule:nonzero;"/>
            </g>
        </g>
        <g transform="matrix(5.55556,0,0,5.55556,9900,9900)">
            <g transform="matrix(1,0,0,1,288.377,103.678)">
                <path d="M0,-10.641C-0.48,-10.615 -1.23,-11.012 -1.203,-9.954C-1.162,-8.453 -1.201,-6.946 -1.203,-5.44C-1.211,-3.858 -1.18,-2.277 -1.236,-0.698C-1.271,0.248 -0.637,0.028 -0.154,0.003C0.324,-0.026 1.057,0.371 1.049,-0.683C1.023,-3.771 1.031,-6.858 1.082,-9.944C1.098,-10.886 0.484,-10.669 0,-10.641" style="fill:rgb(146,42,74);fill-rule:nonzero;"/>
            </g>
        </g>
        <g transform="matrix(5.55556,0,0,5.55556,9900,9900)">
            <g transform="matrix(-0.999994,-0.00336961,-0.00336961,0.999994,103.042,51.1047)">
                <rect x="-48.571" y="0.082" width="48.67" height="59.115" style="fill:white;"/>
            </g>
        </g>
        <g transform="matrix(5.55556,0,0,5.55556,9900,9900)">
            <g transform="matrix(1,0,0,1,133.29,51.2398)">
                <path d="M0,3.033C-0.121,2.962 -0.254,2.984 -0.385,2.984C-10.408,2.951 -20.435,2.918 -30.461,2.885L-30.461,0.014C-30.258,0.009 -30.056,0 -29.853,0C-19.084,0.035 -8.314,0.072 2.453,0.106C2.656,0.107 2.859,0.09 3.061,0.081C3.092,0.183 3.018,0.242 2.955,0.299C1.972,1.213 0.984,2.122 0,3.033" style="fill:rgb(240,126,69);"/>
            </g>
        </g>
        <g transform="matrix(5.55556,0,0,5.55556,9900,9900)">
            <g transform="matrix(0.0534896,-0.998568,-0.998568,-0.0534896,112.499,101.033)">
                <path d="M-9.521,2.394C-9.635,4.688 -9.742,6.887 -9.862,9.088C-9.877,9.38 -9.725,9.375 -9.521,9.386C-5.508,9.586 -1.496,9.787 2.53,9.966C-1.956,8.245 -6.138,6.041 -9.521,2.394" style="fill:rgb(142,33,67);"/>
            </g>
        </g>
        <g transform="matrix(5.55556,0,0,5.55556,9900,9900)">
            <g transform="matrix(1,0,0,1,146.178,110.515)">
                <path d="M0,-6.92C0,-4.614 -0.001,-2.307 -0.002,0C-1.896,-0.006 -3.789,-0.012 -5.755,-0.02C-5.038,-0.683 -4.356,-1.3 -3.725,-1.97C-2.335,-3.44 -1.139,-5.051 -0.107,-6.788C-0.078,-6.837 -0.035,-6.877 0,-6.92" style="fill:rgb(140,32,66);"/>
            </g>
        </g>
        <g transform="matrix(5.55556,0,0,5.55556,9900,9900)">
            <g transform="matrix(1,0,0,1,130.574,59.0321)">
                <path d="M0,40.311C-1.313,41.917 -2.975,42.909 -5.12,42.772C-7.073,42.647 -8.542,41.606 -9.702,40.096C-10.937,38.489 -11.573,36.636 -11.769,34.639C-12.028,31.971 -11.568,29.437 -10.106,27.15C-9.144,25.637 -7.867,24.476 -6.085,24.027C-3.972,23.493 -2.159,24.147 -0.63,25.622C1.093,27.281 1.911,29.386 2.231,31.714C2.308,32.261 2.337,32.812 2.331,33.364C2.284,35.926 1.647,38.297 0,40.311M0.013,12.577C-1.187,9.131 -2.476,5.718 -4.28,2.531C-4.52,2.109 -4.443,1.918 -4.123,1.623C-1.834,-0.494 0.437,-2.628 2.716,-4.759C2.595,-4.831 2.462,-4.808 2.331,-4.808C-7.692,-4.841 -17.719,-4.875 -27.745,-4.908C-27.752,-4.836 -27.765,-4.764 -27.765,-4.691C-27.785,0.693 -27.798,6.078 -27.831,11.461C-27.833,11.866 -27.62,11.816 -27.372,11.819C-22.858,11.832 -18.345,11.847 -13.831,11.864C-13.729,11.864 -13.627,11.872 -13.524,11.863C-13.317,11.845 -13.272,11.93 -13.336,12.119C-13.374,12.227 -13.385,12.344 -13.409,12.458C-14.413,17.176 -15.116,21.931 -15.064,26.769C-15.023,30.541 -14.344,34.204 -12.932,37.709C-12.15,39.651 -11.099,41.426 -9.491,42.819C-6.725,45.219 -2.817,45.217 -0.188,42.794C1.202,41.513 2.056,39.886 2.641,38.122C4.078,33.794 4.142,29.385 3.345,24.934C2.592,20.719 1.421,16.614 0.013,12.577" style="fill:rgb(140,31,65);fill-rule:nonzero;"/>
            </g>
        </g>
        <g transform="matrix(5.55556,0,0,5.55556,9900,9900)">
            <g transform="matrix(1,0,0,1,151.488,110.013)">
                <path d="M0,-58.125C0,-58.286 -0.006,-58.444 -0.01,-58.604C-3.859,-58.62 -7.709,-58.635 -11.56,-58.652C-11.745,-58.653 -11.933,-58.675 -12.119,-58.687C-12.163,-58.613 -12.128,-58.545 -12.095,-58.486C-11.591,-57.554 -11.084,-56.626 -10.577,-55.696C-10.463,-55.785 -10.328,-55.763 -10.198,-55.763C-8.646,-55.759 -7.095,-55.744 -5.542,-55.754C-5.219,-55.755 -5.123,-55.663 -5.125,-55.334C-5.148,-51.476 -5.157,-47.617 -5.171,-43.757C-5.172,-43.627 -5.148,-43.493 -5.239,-43.38C-4.528,-41.359 -3.871,-39.32 -3.322,-37.249C-1.719,-31.188 -0.801,-25.053 -1.443,-18.763C-1.706,-16.203 -2.258,-13.707 -3.105,-11.275C-3.695,-9.59 -4.474,-7.991 -5.311,-6.418C-5.311,-4.112 -5.312,-1.805 -5.312,0.502C-3.789,0.514 -2.266,0.505 -0.744,0.548C-0.273,0.562 -0.187,0.412 -0.187,-0.024C-0.132,-19.391 -0.065,-38.758 0,-58.125" style="fill:rgb(239,125,69);fill-rule:nonzero;"/>
            </g>
        </g>
        <g transform="matrix(5.55556,0,0,5.55556,9900,9900)">
            <g transform="matrix(1,0,0,1,146.317,54.6052)">
                <path d="M0,11.651C0.014,7.791 0.022,3.932 0.046,0.074C0.048,-0.255 -0.048,-0.347 -0.371,-0.346C-1.924,-0.336 -3.476,-0.351 -5.027,-0.355C-5.157,-0.355 -5.292,-0.377 -5.406,-0.288C-5.354,-0.169 -5.306,-0.048 -5.246,0.067C-3.263,3.943 -1.531,7.927 -0.068,12.028C0.022,11.915 -0.001,11.781 0,11.651" style="fill:rgb(140,32,66);fill-rule:nonzero;"/>
            </g>
        </g>
        <g transform="matrix(5.55556,0,0,5.55556,9900,9900)">
            <g transform="matrix(1,0,0,1,125.829,91.8059)">
                <path d="M0,2.794C-0.258,3.097 -0.617,3.166 -0.99,3.022C-1.324,2.896 -1.508,2.482 -1.49,1.826C-1.451,1.203 -1.169,0.55 -0.693,-0.022C-0.473,-0.286 -0.186,-0.447 0.172,-0.451C0.605,-0.455 0.961,-0.18 0.951,0.249C0.931,1.199 0.62,2.065 0,2.794M3.008,-3.036C0.771,-4.129 -1.485,-4.004 -3.535,-2.542C-5.275,-1.299 -5.952,0.482 -5.537,2.577C-5.137,4.594 -3.857,5.896 -1.869,6.398C0.199,6.923 2.15,6.576 3.95,5.398C4.269,5.19 4.252,5.042 4.057,4.762C3.875,4.5 3.771,4.376 3.437,4.603C1.98,5.585 0.371,5.883 -1.333,5.477C-2.834,5.119 -4,4.283 -4.416,2.728C-4.842,1.138 -4.473,-0.31 -3.232,-1.434C-1.658,-2.859 0.197,-3.055 2.129,-2.383C3.971,-1.742 4.663,0.234 3.744,1.969C3.494,2.439 3.164,2.846 2.639,3.023C2.105,3.204 1.736,2.861 1.857,2.315C1.906,2.087 1.976,1.865 2.042,1.644C2.314,0.733 2.591,-0.178 2.879,-1.13C2.514,-1.131 2.194,-1.107 1.88,-1.139C1.353,-1.192 1.594,-0.642 1.342,-0.485C0.891,-1.262 0.336,-1.518 -0.549,-1.357C-0.998,-1.276 -1.408,-1.094 -1.744,-0.778C-2.646,0.063 -3.089,1.094 -2.956,2.337C-2.822,3.584 -1.789,4.304 -0.565,4.023C0.008,3.892 0.408,3.533 0.752,3.023C1.104,3.969 1.658,4.26 2.609,4.053C3.246,3.915 3.754,3.572 4.175,3.093C5.889,1.14 5.358,-1.887 3.008,-3.036" style="fill:rgb(142,35,69);fill-rule:nonzero;"/>
            </g>
        </g>
    </g>
</svg>
